<svg version="1.2" xmlns="http://www.w3.org/2000/svg" viewBox="0 0 246 222" width="246" height="222"><style>.a{fill:#fff}</style><path class="a" d="m32 2.4c-10.7 6.3-31.8 30.5-32 36.9v10.5c0 13.3 12.5 25.1 23.8 25.1 13.6 0 24.9-11.3 24.9-24.7 0 13.4 10.9 24.7 24.5 24.7 13.6 0 24.2-11.3 24.2-24.7 0 13.4 11.6 24.7 25.2 24.7h0.2c13.6 0 25.2-11.3 25.2-24.7 0 13.4 10.6 24.7 24.2 24.7 13.6 0 24.5-11.3 24.5-24.7 0 13.4 11.3 24.7 24.9 24.7 11.3 0 23.8-11.8 23.8-25.1v-10.5c-0.2-6.4-21.3-30.6-32-36.9-33.3-1.2-56.3-1.4-90.7-1.4-34.4 0-81.2 0.5-90.7 1.4zm65.2 66.2q-0.5 0.8-1 1.6-0.6 0.9-1.2 1.6-0.6 0.8-1.2 1.5-0.7 0.8-1.4 1.4c-5.1 5.1-12.2 8.2-19.9 8.2q-2.8 0-5.5-0.6-2.7-0.5-5.3-1.5-2.5-1.1-4.9-2.6-2.3-1.5-4.2-3.5c-1.9-1.8-3.3-3.7-4.6-6-1.3 2.3-3.1 4.2-5 6q-2 2-4.3 3.5-2.3 1.5-4.9 2.6-2.5 1-5.2 1.5-2.8 0.6-5.5 0.6c-1 0-1.9-0.3-2.7-0.6-1.1 11.4-1.6 22.3-1.7 30.2-0.1 4.1-0.1 7.4-0.1 12 0.2 23.8-2.4 77.3 10.5 90.4 20 4.7 56.7 6.8 93.6 6.8 36.8 0 73.6-2.1 93.5-6.8 12.9-13.1 10.4-66.6 10.6-90.4-0.1-4.6-0.1-7.9-0.1-12-0.2-7.9-0.6-18.8-1.7-30.2-0.8 0.3-1.8 0.6-2.7 0.6q-2.8 0-5.5-0.6-2.7-0.5-5.3-1.5-2.5-1.1-4.9-2.6-2.3-1.5-4.3-3.5c-1.8-1.8-3.6-3.7-4.9-6-1.3 2.3-2.7 4.2-4.6 6q-2 2-4.3 3.5-2.3 1.5-4.9 2.6-2.5 1-5.2 1.5-2.8 0.6-5.5 0.6c-7.8 0-14.8-3.2-19.9-8.2q-0.7-0.6-1.4-1.4-0.6-0.7-1.2-1.5-0.6-0.7-1.2-1.6-0.5-0.8-1-1.6-0.5 0.8-1 1.6-0.6 0.8-1.2 1.6-0.6 0.8-1.2 1.5-0.7 0.8-1.3 1.4-2 2-4.3 3.5-2.4 1.5-4.9 2.6-2.6 1-5.3 1.5-2.7 0.6-5.5 0.6-0.4 0-0.8-0.1-0.4 0.1-0.8 0.1-2.8 0-5.5-0.6-2.7-0.5-5.3-1.5-2.6-1.1-4.9-2.6-2.3-1.5-4.3-3.5-0.7-0.6-1.3-1.4-0.7-0.7-1.3-1.5-0.6-0.8-1.1-1.6-0.5-0.8-1-1.6zm-20.5 26.5c8.1 0 15.3 0 24.3 9.7 7-0.7 14.3-1.1 21.7-1.1 7.3 0 14.7 0.4 21.7 1.1 8.9-9.7 16.1-9.7 24.3-9.7 3.8 0 19.1 0 29.8 30l11.5 41.1c8.5 30.7-2.7 31.4-16.7 31.4-20.8-0.7-32.3-15.8-32.3-30.9-11.5 1.9-24.9 2.8-38.3 2.8-13.4 0-26.8-0.9-38.3-2.8 0 15.1-11.5 30.2-32.3 30.9-14 0-25.2-0.7-16.7-31.4l11.4-41.1c10.7-30 26.1-30 29.9-30zm46 23.6c0 0-21.9 20-25.8 27.2l14.3-0.6v12.5c0 0.6 5.7 0.3 11.5 0.1 5.7 0.2 11.5 0.5 11.5-0.1v-12.5l14.3 0.6c-3.9-7.2-25.8-27.2-25.8-27.2q0 0 0 0z"/></svg>