<svg version="1.2" xmlns="http://www.w3.org/2000/svg" viewBox="0 0 900 900" width="900" height="900"><style>.a{fill:#fff}</style><path class="a" d="m248 112c8.4 0.6 16.3 2.7 24.4 4.9q2.4 0.6 4.7 1.2 5 1.3 10 2.6 12.3 3.3 24.7 6.5 4.3 1.1 8.6 2.2c19.9 5.2 39.9 10.3 59.8 15.4q45.7 11.6 91.3 23.5 39.2 10.2 78.5 20.2 47.2 12.1 94.3 24.3 31.3 8.2 62.7 16.2 1.1 0.3 2.3 0.6 7.3 1.9 14.5 3.7 3.6 0.9 7.2 1.9 1.2 0.3 2.4 0.6 2.4 0.6 4.8 1.2 6.2 1.6 12.3 3.2 6.1 1.5 12.2 3.1 2.2 0.6 4.5 1.1c8.3 2.2 16.6 4.3 24.8 6.6-0.6 7.1-2 13.7-3.9 20.6q-0.4 1.7-0.9 3.4-0.9 3.6-1.9 7.3-2.3 8.8-4.6 17.6-0.5 2.1-1.1 4.1c-3.5 13.7-7 27.3-10.3 41q-8 32.1-16.3 64.1-0.3 1.2-0.6 2.4-2.5 9.5-4.9 19.1-7.3 28.4-14.6 57-1.4 5.3-2.8 10.7-6.4 25.1-12.8 50.3-3 11.6-6 23.2-1.7 6.9-3.5 13.8c-4.4 17.5-8.9 34.9-13.5 52.3q-5.1 19-9.8 38c-8.5 34.6-17.5 69.2-26.5 103.7q-0.3 1.1-0.6 2.3-0.8 2.9-1.6 5.9-0.9 3.6-1.8 7.2c-6.7-0.6-12.8-1.8-19.3-3.6q-1.5-0.4-3-0.8-3.4-0.9-6.7-1.8-8.5-2.2-17-4.5-3.1-0.8-6.3-1.7c-17.1-4.5-34.3-9-51.5-13.5q-8.6-2.2-17.1-4.5-22.5-5.8-45-11.7-11.8-3.1-23.5-6.1-1-0.3-2.1-0.6-25.9-6.8-51.8-13.7-18.3-5-36.7-9.6-27.8-7.1-55.6-14.4c-1.1-0.3-1.1-0.3-2.2-0.6q-27.3-7.1-54.5-14.4c-13.6-3.7-27.3-7.2-40.9-10.7q-21-5.3-41.9-11-20.4-5.5-41-10.9c-1.3-0.3-1.3-0.3-2.7-0.7q-3.8-1-7.7-2-1.1-0.3-2.2-0.6-7.2-1.8-14.3-3.6c0.6-9 3-17.6 5.2-26.3q0.7-2.6 1.4-5.2 1.7-7 3.5-14 1.9-7.4 3.8-14.9 9.8-38.6 19.8-77.2c7.8-30.4 15.6-60.9 23.3-91.4 8.5-33.6 17.1-67.1 25.7-100.6q9.5-37.2 18.9-74.4 9.8-38.6 19.7-77.2 0.3-1.2 0.6-2.4 7.5-29.2 15.1-58.4zm163 275q-0.4 1.5-0.8 3-1.5 6-3 12.1-0.8 2.8-1.5 5.6-4.6 18-9.2 35.9-1.6 5.9-3.2 11.9-1.2 4.9-2.5 9.8-1.5 5.5-2.9 11-0.4 1.7-0.9 3.4-0.4 1.5-0.8 3.1-0.3 1.3-0.7 2.7c-0.5 2.6-0.6 4.9-0.5 7.5q1.2 0.3 2.4 0.6 11.5 2.8 22.9 5.6 5.9 1.5 11.8 2.9 5.7 1.4 11.4 2.8 2.3 0.6 4.6 1.2 12.6 3.1 25.1 6.2 2.3 0.6 4.5 1.2 4.2 1 8.3 2.1 1.9 0.5 3.8 1 1.6 0.4 3.3 0.8c2.7 0.6 5.1 0.7 7.9 0.6q0.3-1.1 0.6-2.1 0.4-1.5 0.8-3.1 0.5-1.7 0.9-3.5 1.1-3.8 2.1-7.7 2.6-9.7 5.2-19.3 1.5-5.4 3-10.8 0.2-1.1 0.5-2.2 3.6-13.3 7.3-26.5 1-3.8 2-7.6 1-3.4 1.9-6.8 0.6-2 1.1-4 0.5-1.7 1-3.4c0.6-2.8 0.7-5.2 0.6-8q-14.2-3.7-28.4-7.3-6.3-1.6-12.6-3.2-11.2-2.9-22.5-5.8-5.7-1.5-11.5-2.9-5.5-1.5-11-2.9-2.1-0.5-4.1-1-2.9-0.8-5.7-1.5-1.6-0.4-3.3-0.8c-2.7-0.6-5.1-0.7-7.9-0.6z"/></svg>